<?xml version="1.0" encoding="utf-8"?>
<!-- Generator: Adobe Illustrator 27.8.1, SVG Export Plug-In . SVG Version: 6.00 Build 0)  -->
<svg version="1.1" id="Layer_1" xmlns="http://www.w3.org/2000/svg" xmlns:xlink="http://www.w3.org/1999/xlink" x="0px" y="0px"
	 viewBox="0 0 512 512" style="enable-background:new 0 0 512 512;" xml:space="preserve">
<g>
	<path d="M435.31,380.65c0,1.73,1.4,3.12,3.12,3.12s3.12-1.4,3.12-3.12c0-1.73-1.4-3.12-3.12-3.12S435.31,378.93,435.31,380.65z
		 M366.35,451.81c-0.01,3.43,2.77,6.22,6.2,6.22s6.22-2.77,6.22-6.2v-0.02c0.01-3.43-2.77-6.22-6.2-6.22
		c-3.43-0.01-6.22,2.77-6.22,6.2V451.81z M273.39,488.44c-0.01,5.16,4.17,9.34,9.33,9.35c5.16,0.01,9.34-4.17,9.35-9.33v-0.02
		c0.01-5.16-4.17-9.34-9.33-9.35c-5.16-0.01-9.34,4.17-9.35,9.33V488.44z M173.32,483.53c0,6.86,5.56,12.43,12.43,12.43
		s12.43-5.56,12.43-12.43s-5.56-12.43-12.43-12.43S173.32,476.67,173.32,483.53z M84.55,437.98c0,8.59,6.95,15.55,15.54,15.56
		c8.59,0,15.55-6.95,15.56-15.54v-0.02c0-8.59-6.95-15.55-15.54-15.56c-8.59,0-15.55,6.95-15.56,15.54V437.98z M23.07,360.53
		c0,10.31,8.35,18.68,18.67,18.68c10.31,0,18.68-8.35,18.68-18.67v-0.02c0-10.31-8.35-18.68-18.67-18.68
		c-10.31,0-18.68,8.35-18.68,18.67V360.53z M0,265.45c0,12.02,9.74,21.77,21.76,21.77c12.02,0,21.77-9.74,21.77-21.76v-0.02
		c0-12.02-9.74-21.77-21.76-21.77C9.75,243.67,0,253.41,0,265.43V265.45z M18.98,170.98c0,13.75,11.14,24.89,24.88,24.89
		c13.75,0,24.89-11.14,24.89-24.88v-0.01c0-13.75-11.14-24.89-24.88-24.89C30.13,146.08,18.99,157.22,18.98,170.98L18.98,170.98z
		 M75.93,94.8c0,15.47,12.54,28.01,28.01,28.02c15.47,0,28.01-12.54,28.02-28.01V94.8c0-15.47-12.54-28.01-28.01-28.02
		c-15.47,0-28.01,12.54-28.02,28.01V94.8z M159.56,51.17c-0.01,17.18,13.91,31.11,31.09,31.12c17.18,0.01,31.11-13.91,31.12-31.09
		v-0.03c0.01-17.18-13.91-31.11-31.09-31.12c-17.18-0.01-31.11,13.91-31.12,31.09V51.17z M253.48,48.46
		c-0.01,18.9,15.3,34.24,34.2,34.25c18.9,0.01,34.24-15.3,34.25-34.2v-0.05c0.01-18.9-15.3-34.24-34.2-34.25
		c-18.9-0.01-34.24,15.3-34.25,34.2V48.46z M339.47,87.15c-0.01,20.61,16.69,37.32,37.3,37.33c20.61,0.01,37.32-16.69,37.33-37.3
		v-0.03c0.01-20.61-16.69-37.32-37.3-37.33c-20.61-0.01-37.32,16.69-37.33,37.3V87.15z M400.57,159.82
		c0,22.33,18.1,40.44,40.43,40.45c22.33,0,40.44-18.1,40.45-40.43v-0.02c0-22.33-18.1-40.44-40.43-40.45s-40.44,18.1-40.45,40.43
		V159.82z M424.88,253.95c0,24.06,19.5,43.56,43.56,43.56c24.06,0,43.56-19.5,43.56-43.56c0-24.06-19.5-43.56-43.56-43.56
		C444.38,210.38,424.88,229.89,424.88,253.95z"/>
</g>
</svg>
